<?xml version="1.0" standalone="no"?><!DOCTYPE svg PUBLIC "-//W3C//DTD SVG 1.1//EN" "http://www.w3.org/Graphics/SVG/1.1/DTD/svg11.dtd"><svg t="1699526311635" class="icon" viewBox="0 0 1024 1024" version="1.1" xmlns="http://www.w3.org/2000/svg" p-id="4314" xmlns:xlink="http://www.w3.org/1999/xlink" width="200" height="200"><path d="M245.282133 228.2496c64.7168-62.941867 153.1904-99.498667 242.961067-105.233067 125.5424-9.284267 252.654933 48.8448 330.0352 147.694934 20.992 27.170133 40.209067 56.558933 50.414933 89.634133 10.513067 34.747733 14.0288 71.4752 11.4688 107.656533-1.7408 34.542933-13.5168 67.549867-26.146133 99.4304-27.716267 67.345067-72.9088 129.706667-136.2944 167.355734-65.877333 40.072533-148.48 54.442667-223.095467 32.733866-47.104-13.448533-90.4192-41.198933-121.2416-79.428266-25.531733-31.470933-39.936-72.635733-34.816-113.288534 6.7584-48.5376 30.446933-95.163733 67.345067-127.6928 21.367467-18.670933 48.264533-31.5392 76.731733-33.928533-62.907733 32.187733-102.468267 107.861333-87.04 177.7664 11.400533 49.698133 44.1344 94.5152 89.053867 119.022933 51.950933 28.9792 114.517333 33.928533 172.202667 22.664534 50.7904-10.410667 99.6352-35.362133 133.256533-75.537067 48.605867-57.207467 65.570133-136.055467 58.402133-209.578667-7.645867-82.670933-48.5376-161.041067-110.148266-216.405333C688.810667 186.231467 625.7664 156.8768 559.752533 146.773333c-96.938667-15.803733-198.587733 7.509333-281.463466 59.460267-11.332267 6.826667-21.674667 15.189333-33.006934 22.016z" fill="#2c2c2c" p-id="4315"></path><path d="M358.1952 219.579733c80.042667-18.397867 166.5024-10.3424 241.0496 24.541867 62.634667 29.149867 115.2 81.476267 140.5952 146.158933 18.466133 48.196267 23.415467 102.161067 10.6496 152.405334-10.1376 40.448-38.1952 75.093333-73.693867 96.324266-40.516267 24.6784-90.658133 33.0752-136.9088 22.391467-35.054933-7.953067-67.652267-28.4672-87.005866-59.1872-0.7168-2.1504-2.116267-6.485333-2.833067-8.669867 19.080533 23.005867 44.885333 39.1168 71.850667 51.4048 32.017067 14.984533 70.5536 14.779733 102.673066 0.238934 38.775467-16.861867 69.0176-50.2784 85.572267-88.814934 20.138667-49.015467 19.694933-105.3696 2.116267-155.067733-22.152533-63.453867-70.178133-117.521067-130.7648-146.6368-38.434133-18.7392-82.0224-25.9072-124.484267-21.674667-89.4976 8.738133-175.274667 55.364267-229.376 127.488-80.7936 105.813333-93.047467 257.365333-33.8944 376.1152-48.64-67.652267-73.966933-151.620267-71.509333-234.871466 5.290667-63.453867 28.398933-125.44 65.160533-177.390934 40.5504-55.466667 104.721067-89.8048 170.8032-104.7552z" fill="#2c2c2c" p-id="4316"></path><path d="M404.002133 339.6608c44.032-18.875733 95.402667-24.8832 140.9024-7.5776 47.104 17.7152 81.134933 59.938133 99.2256 105.745067 16.2816 41.642667 19.7632 91.5456-3.208533 131.413333-22.971733 42.0864-78.301867 61.883733-123.0848 45.431467 24.507733-3.1744 48.878933-12.151467 66.286933-30.344534 20.138667-19.592533 30.856533-47.889067 30.139734-75.8784 1.262933-41.335467-12.3904-84.992-44.202667-112.810666-35.362133-30.788267-85.4016-43.7248-131.345067-34.577067-43.895467 8.840533-82.807467 34.645333-113.117866 67.003733-47.581867 50.4832-76.9024 119.9104-72.2944 189.8496 2.286933 51.336533 25.224533 100.0448 58.0608 138.9568 51.438933 60.450133 126.225067 99.805867 204.663466 110.557867 95.982933 13.858133 194.901333-18.6368 269.858134-78.7456-60.450133 62.190933-143.837867 100.795733-229.717334 110.7968-22.6304 2.286933-45.738667 4.7104-68.266666 0.1024-37.444267-6.9632-73.5232-20.3776-107.6224-37.1712-29.866667-15.018667-59.357867-34.030933-77.243734-63.146667-30.071467-48.0256-53.5552-101.2736-61.098666-157.7984-9.454933-61.678933 0.034133-126.7712 29.696-181.9648 28.501333-53.6576 76.731733-95.914667 132.369066-119.842133z" fill="#2c2c2c" p-id="4317"></path></svg>