<?xml version="1.0" standalone="no"?><!DOCTYPE svg PUBLIC "-//W3C//DTD SVG 1.1//EN" "http://www.w3.org/Graphics/SVG/1.1/DTD/svg11.dtd"><svg t="1699170901186" class="icon" viewBox="0 0 1024 1024" version="1.1" xmlns="http://www.w3.org/2000/svg" p-id="4178" xmlns:xlink="http://www.w3.org/1999/xlink" width="200" height="200"><path d="M463.233951 616.890951s6.613069 39.294428-1.450609 125.946962c-10.068931 108.624988 41.385011 281.162087 41.385011 281.162087s70.183859-172.878418 57.939016-284.575284c-10.068931-91.814994 4.565151-123.899044 1.450609-119.589883-53.92851 74.49302-99.324027-2.943882-99.324027-2.943882z m131.493407 93.222938c8.788982 67.879951-0.981294 105.041132-13.652788 177.656894-6.399744 36.734531 130.896097-110.459582 183.544659-198.17874 8.788982-14.634081-50.344653 57.043052-108.838314 5.8451-40.574377-35.497247-47.528766-46.291482-79.058171-77.138248-10.623575-10.41025 11.818194 43.26227 18.047279 91.772329z m-149.83934-86.396544c-31.529405 30.846766-38.526459 41.641001-79.058171 77.138247-58.49366 51.197952-117.627295-20.479181-108.838313-5.845099 52.648561 87.761823 189.944402 234.91327 183.544658 198.178739-12.671493-72.658427-22.441769-109.819607-13.652787-177.656893 6.271749-48.51006 28.713518-102.182579 18.047278-91.772329z m135.077263-121.125822c64.1681 18.516593 89.084437 107.643694 153.849846 118.651254 13.396797 2.261243 28.457528 6.314414 46.035492 5.461115 32.852019-1.578604 74.40769-20.137861 129.914804-98.897378 16.42601-23.295068-40.745037 149.92467-184.013973 152.015253-104.955802 1.535939-117.200645-102.737224-187.17118-105.894431-25.257656-1.151954-26.83626-49.320694-26.83626-49.320694s30.121462-33.022679 68.178606-22.057784z m-135.930562-0.51198c-64.1681 18.516593-89.084437 107.643694-153.849846 118.651254-13.396797 2.261243-28.457528 6.314414-46.035492 5.461115-32.852019-1.578604-74.40769-20.137861-129.914804-98.897377-16.42601-23.295068 40.745037 149.92467 184.013973 152.015253 104.955802 1.535939 117.200645-102.737224 187.17118-105.894431 25.257656-1.151954 26.83626-49.320694 26.83626-49.320694s-30.121462-33.022679-68.178606-22.057784z m240.033065-0.853299c64.552085 48.894044 45.310188 102.737224 81.532739 87.377839 121.979121-51.709932 100.646641-317.171313 90.791035-285.087264-55.592443 180.984761-176.76093 191.139021-293.364266 107.857019-22.783089-16.25535 84.689946 62.248177 121.040492 89.809741z m-223.564391-89.852406C343.900057 494.613175 222.731571 484.50158 167.139128 303.516819c-9.855606-32.08405-31.188086 233.334667 90.791035 285.087264 36.222551 15.359386 16.980654-38.483794 81.532738-87.377839 36.350546-27.561564 143.82358-106.065091 121.040492-89.809741z m235.76657 24.916337c140.794368-5.802435 166.777329-236.577204 155.727104-208.41833-49.704678 126.416277-237.814487 78.844846-255.776436 158.628322-3.541192 15.65804 31.870725 52.605896 100.049332 49.790008z m-268.959909-49.790008c-17.961948-79.783475-206.114422-32.212045-255.776435-158.628322-11.050225-28.158874 14.932736 202.615895 155.727104 208.41833 68.221271 2.815887 103.590523-34.131968 100.049331-49.790008z m160.121595-35.155927s76.540938-41.129022 142.074317-59.048305c61.224218-16.767329 107.17438-57.981681 112.25151-101.542605 3.797181-32.42537-47.358106-93.734917-47.358105-93.734917s-35.881231 99.580017-82.983348 149.370025c-51.240617 54.184499-31.785395 46.888791-123.984374 104.955802z m-275.316987-104.955802C265.012546 196.598429 229.131315 97.018413 229.131315 97.018413S177.976028 158.285295 181.773209 190.75333c5.119795 43.560924 51.027292 84.775276 112.25151 101.542605 65.533379 17.961948 142.074317 59.048305 142.074317 59.048305-92.241644-58.067011-72.743757-50.771302-123.984374-104.955802z m266.016026 98.641387c82.898017-68.007946 126.970921-156.708398 198.690719-253.813847 13.524792-18.303268-60.541578-62.504167-89.809741-65.405384S633.168487 130.467741 630.395264 193.739877c-2.517233 57.768356-63.400131 160.462915-52.221911 151.332613zM393.135421 193.697212C390.362199 130.425076 365.787182 22.866712 336.519019 25.767929S233.184486 72.870045 246.709278 91.173313c71.719798 97.105449 115.750037 185.848566 198.690719 253.813848 11.135555 9.130301-49.704678-93.564257-52.221911-151.332614z m193.314934-68.349266c5.8451-46.846126 26.92159-81.063424 68.818581-109.819607-37.033185-12.372838-67.879951-22.441769-83.964642-9.258296s-59.858939 57.256376-54.013839 128.976174 0.298655 339.698412 13.012813 334.749277c6.826394-183.544658 64.936069-236.278549 56.147087-344.604883z m-93.265602 344.604883c12.671493 4.949135 7.125048-263.029479 13.012812-334.749277S468.311081 19.41085 452.183726 6.227378C436.099036-6.956095 405.294935 3.112835 368.219085 15.485674c41.939656 28.756183 62.973481 62.973481 68.81858 109.819607-8.788982 108.326334 49.320694 161.060224 56.147088 344.604883z" p-id="4179"></path></svg>