<?xml version="1.0" standalone="no"?><!DOCTYPE svg PUBLIC "-//W3C//DTD SVG 1.1//EN" "http://www.w3.org/Graphics/SVG/1.1/DTD/svg11.dtd"><svg t="1698311198882" class="icon" viewBox="0 0 1024 1024" version="1.1" xmlns="http://www.w3.org/2000/svg" p-id="1475" xmlns:xlink="http://www.w3.org/1999/xlink" width="200" height="200"><path d="M-0.006384-0.012705h1026.566352v1026.566353H-0.006384z" fill="#FFFFFF" p-id="1476"></path><path d="M666.237732 571.690269l66.639989-92.625908h165.542762l-146.645769 209.243334-85.536982-116.617426" fill="#40D0FD" p-id="1477"></path><path d="M458.521479 509.703026l83.256575 121.62513L898.41793 118.205859h-165.542762l-274.356242 391.49972z" fill="#41D0FD" p-id="1478"></path><path d="M582.820278 689.467052l84.449128 118.711417 84.505308-119.870774-85.536982-116.617426-83.417454 117.776783z" fill="#1FBCFD" p-id="1479"></path><path d="M667.269406 808.178469l84.505308-119.870774 144.584976 208.648335h-166.474844l-62.61544-88.777561z" fill="#095A9D" p-id="1480"></path><path d="M667.269406 808.178469l78.736618-37.372633-26.532399-36.695916-52.204219 74.068549z" fill="#0E5199" p-id="1481"></path><path d="M128.199496 718.313055v-241.909595c0-16.021585 2.523004-24.029824 10.089462-32.040617 95.863933-100.930369 190.882608-201.858185 286.743986-302.788554 13.452616-14.417895 26.067635-28.838343 42.883405-28.838343 26.910339 1.603691 49.612266 30.43948 58.021428 80.102819 8.409162 48.062202 0 105.736334-22.701927 131.36985-25.230039 30.43948-51.29512 56.070441-77.362756 83.305093-95.861379 100.930369-191.722758 201.860739-288.424286 302.788555-2.523004 3.204828-4.205858 4.805965-9.249312 8.010792z" fill="#ED9B58" p-id="1482"></path><path d="M280.399449 625.393479c2.523004-3.204828 5.886158-6.409656 8.409162-9.61193 31.113643-33.641754 62.224732-65.684925 93.335821-99.326679 6.728862-8.010793 11.774869-8.010793 17.661027 3.204828 35.316947 62.480097 72.316748 123.356503 107.633695 185.8366 19.341327 33.644308 25.227485 76.897991 17.658473 124.960194-7.569012 46.461065-25.227485 73.695717-50.452416 81.706509-16.818323 4.803411-32.796497-3.204828-45.408963-24.032377-49.612266-84.908784-98.384383-169.817568-147.996649-254.726353 0.842704-1.601137 0-4.805965-0.84015-8.010792z m-151.359803-237.10363c0-59.275269-2.523004-118.550538 0.842704-176.227224C133.24295 146.382807 166.877043 106.331398 203.876844 114.339637c31.111089 6.407102 56.338574 65.682371 53.81557 128.162468 0 6.409656-2.523004 16.021585-5.046007 19.226413-39.520251 43.253684-79.883206 84.908784-120.246161 126.561331-0.84015 0-1.6803-1.601137-3.363154 0z m128.655322 262.737145c0 54.469304 1.682854 105.736334-0.84015 155.399673-2.523004 59.275269-31.953793 105.736334-63.067436 107.337472-30.270939 1.601137-59.704282-44.857374-64.747736-102.531507-1.6803-17.622722 0-28.838343 9.249312-38.450272 36.159651-36.846582 72.319301-75.294301 108.476398-113.744574 2.52045-1.603691 5.883604-4.805965 10.929612-8.010792z" fill="#6C97D3" p-id="1483"></path></svg>